<svg id="Calque_1" data-name="Calque 1" xmlns="http://www.w3.org/2000/svg" viewBox="0 0 595.28 595.28"><path d="M308.1,595.44H287.17a12.24,12.24,0,0,0-2.65-1c-15-1.91-28.84-7.23-41.73-15-27-16.24-47-39.43-63.58-65.68-28.28-44.67-45.6-93.55-54.77-145.4-6.64-37.55-8.79-75.27-1.08-112.93C135.63,195.59,170.05,155.19,229.63,138c14.39-4.15,29.38-6.2,44.35-9.26V94L0,95.3V48.88c62.77-.22,125.55-.05,188.32-.75,90.07-1,180.14-2.78,269.54-15.52,33.19-4.73,66-11.33,97.5-23.13,6.46-2.42,12.79-5.18,19.41-7.88,2.62,5.32,5,10.36,7.57,15.33,4.27,8.35,8.62,16.66,12.94,25v1.16c-28.23,13.22-58,21.59-88.62,28.05.49.68.64,1.08.93,1.26,1.14.72,2.31,1.4,3.49,2,32.48,17.46,60.34,40.27,82.07,70.24a10,10,0,0,0,2.13,1.69v1.16l-37.75,26.24c-6.36-7.37-11.93-14.58-18.26-21-31.69-32.36-71-50.92-114.33-61.88-9.49-2.4-19.4-4.49-29.09-4.39-17,.16-34,2.14-51,3.32-7.86.55-15.73,1-23.49,1.47v38.48c5.83.72,11.23,1.25,16.58,2.09s10.69,1.79,16,3c46.27,10.48,82.42,34.54,103.85,77.91,13.18,26.67,18.18,55.31,18.82,84.75,1.07,49.27-8.22,96.85-24.88,143.05-13.45,37.33-31.28,72.35-57.24,102.74-18.64,21.81-40.27,39.59-68.42,47.92C320.16,592.91,314.09,594,308.1,595.44Zm-142.27-296c-3,17.31,5.16,76.61,11.6,90.28,56.78,1.88,184.49-25.92,198.66-43.3C303.63,341.4,232.23,331.72,165.83,299.47Zm234.25-89.71c-25.69,17.21-52.29,31.13-80.74,40.9-28.18,9.67-56.93,17.69-84.58,26.17C297.52,295.4,363.39,300.61,430.3,302,429.08,267.84,423.61,236.16,400.08,209.76ZM422.8,377l-1.59-.83c-57.46,34.35-121,48.8-186.6,57a11.1,11.1,0,0,0,3.77,2.15c48.68,18.16,99.34,24.32,150.92,24.68,1.85,0,4.58-2,5.42-3.71a224.8,224.8,0,0,0,10.51-24.44C411.4,413.65,417,395.26,422.8,377Zm-245-140.21C240.3,229.68,299.32,214,355,183.17c-3-.94-4.64-1.53-6.31-1.94-26.25-6.52-52.84-7.36-79.57-4.2-21.75,2.57-42.44,8.48-60.61,21.35C194.8,208.1,184.85,220.76,177.75,236.75ZM210.82,475c13.88,25.39,30.1,48.7,55.24,64.27q31,19.21,62.52.51c13.84-8.25,25-19.39,34.89-32,.25-.32,0-1,0-1.79C311.12,503.15,260,494.66,210.82,475Z"/></svg>