<svg id="Calque_1" data-name="Calque 1" xmlns="http://www.w3.org/2000/svg" viewBox="0 0 595.28 382.15"><path d="M3,174.3c48.43-19.57,99.74-24.65,151.06-30.11,14.64-1.56,31.08,1.49,43.2-12.9-8.81-1.94-18.12-.43-25.72-6.61,4.12-6.17,10.4-4.82,16.57-7.89-13.12-2.6-25.8-2.62-37.66-9.53,7.08-8.64,16.91-5.39,25.2-8-13-4.85-27.45-4.31-40.4-14,9-4.85,17.64-2.2,27.42-4-14.45-7.67-29.66-9.81-42.4-21.38,13.28-3.32,24.19.61,38.85,1.6-14-7.39-24.74-13-35.37-18.7-2.55-1.38-6-3.23-5.31-6.37,1-4.4,5.37-3.52,8.73-3.13a149,149,0,0,1,41.48,11.33c41,17.59,82,35.08,122.33,53.92,23.76,11.09,46.62,23.89,58.61,49.75,4.85,10.46,13.76,10.18,21,.73,6.61-8.61,12.79-17.5,20.57-25.2,24.39-24.13,56.37-26.72,78.4-.92C487.85,144.3,509,154.66,535.4,160c22.44,4.54,42.28,16.49,62.85,26.13V192c-8.18.48-15.55-2.37-22.9-5.42-23.44-9.73-47.92-15.93-72.9-20-21.27-3.49-40.77,5.7-60.88,10.05-5.93,1.29-8.7,7.32-9.75,13.7-1.59,9.69-3.38,19.4-5.92,28.87-8.32,30.93-27.13,51.68-59.09,60.11-20.64,5.45-40,14.4-59.39,23.21-9.46,4.29-13.59,10.49-12.7,20.71.47,5.35-1,10.89-.28,16.18,1.94,14.74-15.35,19.48-15.3,33.15-8.29-3.31-3.77-10.23-6.94-15.19-1.74,6.91-3.21,13.3-5,19.59-.67,2.33-2,4.69-5.1,4.47s-5-2.89-4.39-5C260.89,365,253.51,355,254,343.63c.5-11.23,4.15-19.73,10.73-28,8-10,11.45-21.81,11.54-34.37.1-12.89.62-25.77,5.56-37.71,3.13-7.59-4.45-12.47-3.05-20.23-8.6,13.26-21.49,2.32-31.59,6.72-.63.28-1.94-.38-2.64-.95-7-5.77-9.67-6.64-17.51-5.26-2.91-5.22,3.7-7.24,4.37-11.22-1.27-.16-2.53-.71-3.05-.32-14.67,11.12-24.65-3.18-33.9-8.83-5-3.05-8-4.33-12.77-3.26-9.18,2-18.29,4.93-27.8,4-3.53-.34-11.75,4-8.11-6.92,1.11-3.32-5.32-1.3-8.14-.89-12.91,1.86-25.59,7.21-39,3.11-.38-7.16,7.3-4.75,9.06-9.44a25.14,25.14,0,0,0-4.27,0C94.21,191.85,85,194.81,75.77,195c-5.37.12-15.93,6-16-7.42,0-.32-3.71-1.37-5.21-.81C35.36,194,20.7,177.46,3,177.25Z"/></svg>