<svg id="Calque_1" data-name="Calque 1" xmlns="http://www.w3.org/2000/svg" viewBox="0 0 639.03 638.87"><path d="M34.77,638.26,0,603.48,316.93,287.11c-20-27.05-33-56.18-41.19-87.55-11.79-45.35-13.12-90.78,1-135.79A119.43,119.43,0,0,1,293,31.24C317.2-3.09,359.59-9.87,393.83,14.6c6,4.27,11.54,5.39,18.58,4.19C431,15.61,448.56,19,465,28.61a12.34,12.34,0,0,0,8.95,1.15C511.8,17.52,545,31,563.83,66.28a21.55,21.55,0,0,0,9,8.72c37.92,18.19,51.62,51.56,37.31,91.2a11.15,11.15,0,0,0,.72,8.35,75.28,75.28,0,0,1,9.26,52.58c-1.29,7.1.46,12.18,4.44,17.76,23.36,32.8,18.08,73.22-13.23,97.88a110.29,110.29,0,0,1-27,15.54c-30.22,12.11-62,15.28-94.21,12.79-49.67-3.83-95.62-18.68-136.43-47.91a5.12,5.12,0,0,0-1.49-.56L316.94,358.3c3.59,1.65,7.7,3.22,11.49,5.33,31.49,17.49,47.56,44.44,47.82,80.26.06,8.61,1.83,13.23,10.16,17.58,31.68,16.56,45.88,52.68,35,87.49-8.51,27.18-22.72,51.42-41.25,73.07a67.22,67.22,0,0,1-9.12,8.73c-13.1,10.48-27.94,11-40.81.29a122.19,122.19,0,0,1-19.69-21.49c-14-19-25.23-39.61-31.93-62.43-10.49-35.73,6.52-73.31,40.66-88.41,6-2.65,7.53-5.67,7.4-11.75-.45-22.6-11.41-38.33-30.86-42.45-16-3.38-29,2.21-40.33,13.59q-58.26,58.54-116.86,116.75-49.5,49.41-99,98.82C37.89,635.37,36.12,637,34.77,638.26Zm417.4-410c31.15-10.62,60.05-24.32,85-45.23,11.69-9.79,21.27-21.41,26.67-35.91,4.47-12,2.55-19.72-8.47-24.41-17.68-7.52-30.79-18.88-38.07-36.73a10.66,10.66,0,0,0-1.49-2.2c-5.81-7.81-12-10.05-21.51-7.71a54.52,54.52,0,0,0-30.39,19.34c-14.89,19.23-28.74,39.29-42.41,59.41-6.14,9-10.81,19.08-16.31,29C425.21,194.9,440.72,209.46,452.17,228.24Zm25.49,91.36c23.38,3.74,46.73,2.72,70-2,11.84-2.4,23.26-6,32.78-13.79,9-7.36,10.77-16.39,5.44-26.71a62.52,62.52,0,0,0-5.09-7.77,58.48,58.48,0,0,1-11.45-33.44c-.11-4.56.38-9.13.58-13.27-15.72,9.92-30.91,20.7-47.19,29.44-16.49,8.86-34.07,15.71-50.89,23.31C473.71,289.8,475.63,304.25,477.66,319.6ZM418.18,68.38c-2.76.36-6.23,1-9.73,1.22-15.5.94-29.11-3.94-41.57-13-14.68-10.72-26.77-8.08-36.1,7.44a52.79,52.79,0,0,0-4.72,9.49c-9.63,27.5-11.34,55.76-7.79,84.5.44,3.57,2.15,4.56,5.63,4.84,9.93.8,19.87,1.82,29.71,3.35,3.53.55,5.16-.09,6.65-3.23,3.24-6.78,6.38-13.68,10.37-20C386.26,118,402.21,93.35,418.18,68.38Zm7.05,237.27c-5.09-55.4-34.66-87.12-92.18-91.58C350,258.47,380.52,288.84,425.23,305.65ZM350.31,579.72c9.94-15.41,19.12-30.21,23.86-47.25a24,24,0,0,0-9-25.91A25.2,25.2,0,0,0,337,505.43c-8.74,5.51-13.59,15.78-11,25.8C330.55,548.79,339.84,564.09,350.31,579.72Z"/></svg>