<svg id="Calque_2" data-name="Calque 2" xmlns="http://www.w3.org/2000/svg" viewBox="0 0 595.28 841.89"><defs><style>.cls-1{fill:#fff;}.cls-2{fill:#a4dbf8;}</style></defs><path class="cls-1" d="M297.64,0C133.26,0,0,128.63,0,287.36c0,4.56.14,9.12.34,13.68C-1,457.45,223.48,688.5,235.47,700.69l.2.2a4,4,0,0,0,1.09.75h.07a3,3,0,0,0,1.29.27,3.18,3.18,0,0,0,2.18-.82l.48.82,25.33,43.31h-5.58a3.37,3.37,0,0,0-3.41,3.4v88.32a3.42,3.42,0,0,0,3.41,3.41h86.34a3.46,3.46,0,0,0,3.4-3.41V748.62a3.41,3.41,0,0,0-3.4-3.4H334.2l21.05-43.31.34-.61a2.57,2.57,0,0,0,1.77.61,2.82,2.82,0,0,0,1.29-.27,2.44,2.44,0,0,0,1.09-.75c.14-.07.2-.14.2-.2C372,688.43,598.61,455.21,595,298.8v-1.3c.21-3.4.28-6.74.28-10.14C595.28,128.63,462,0,297.64,0ZM274.08,745.22l-25.4-43.31h27l17,43.31Zm25.87,0L283,701.91h34.93l-12.8,43.31Zm26.7,0H312.21L325,701.91h22.68Z"/><path class="cls-2" d="M240.76,702.56h-2.65a3.25,3.25,0,0,0,2.18-.82Z"/><path class="cls-2" d="M357.34,702.56h-2.11l.34-.62A2.56,2.56,0,0,0,357.34,702.56Z"/></svg>