<svg id="Calque_1" data-name="Calque 1" xmlns="http://www.w3.org/2000/svg" viewBox="0 0 978.78 424.56"><path d="M0,346.31V147.7H41.68V312.42H92a11.34,11.34,0,0,0-4.27-2.72c-1.68-.72-3.44-1.29-5-2.15C64.23,297.69,52,283.79,53,261.44c.65-15.11.7-30.27,2.13-45.31,2.5-26.34,7.27-52.32,15.92-77.44,4.69-13.63,11.77-25.73,23.64-34.4,30-22,62-3.89,68.11,25.38C164,135.34,166,139.94,170,144c15.28,15.75,34.24,24.39,55.42,28.61,12.54,2.5,25.2,4.47,37.78,6.81,6.9,1.29,11.29,5.91,13.27,12.23a35.44,35.44,0,0,1,1.05,12.72c-.24,3.68.46,5.21,4.35,5.31,1.67.05,4.62,1.36,4.73,2.34.56,5.39,4.52,5.23,8.07,5.32,9.48.24,19,.2,28.47.24,6.78,0,13.57,0,20.47,0a20.64,20.64,0,0,1,.25,3.44c-.57,5.13,1.94,6.87,6.75,6.62,3.82-.2,7.66,0,11.49,0,7.49,0,7.49,0,9.44-7.17,4.71-17.29,17.67-28.34,35.55-30.13,3.09-.3,6.23,0,10.5,0l-23-44.61-.95.37c-.71,7.87-1.41,15.74-2.1,23.42H365V1.48h26.3c.16,1.83.32,3,.34,4.1q1,58.62,2,117.25c0,2.1.07,4.5,1,6.24,12.75,23.14,25.26,46.42,38.74,69.13,5.18,8.73,11,16.94,14.19,26.71a5,5,0,0,0,3.85,2.64q38.46-.24,76.92-.91c1.18,0,3.17-1,3.4-1.84,3.24-12.24,11.86-21.44,17.86-32.11q18.06-32.16,35.56-64.64a19.81,19.81,0,0,0,2.18-8.92c.14-37.43.09-74.85.09-112.28V1.56h26.89v168H588.57c-.71-8.23-1.39-16.09-2.07-24l-1-.24L561,191c4.81-.3,9.19-1.36,13.29-.68,14.92,2.49,26.41,11.06,31.29,24.91,3.86,10.95,9.37,13.81,20,12.68,9.75-1,9.83-.27,11.17-10.27h5.3c13.65,0,27.39-1,40.93.22,9.28.86,10.65-9.57,18.24-10,.34,0,.68-2.1.8-3.24.17-1.65.15-3.32.19-5,.3-13.46,3.87-18.07,17.18-20.89,9.43-2,19-3.35,28.49-5,19.22-3.35,37.48-8.94,53.1-21.33,8.34-6.61,14.49-14.06,16.51-25.11,4.81-26.45,40.28-45.92,68.9-21.92,10.1,8.47,16.13,19.73,20.92,31.73,8.51,21.31,12.88,43.65,15.71,66.25,2.22,17.79,4.18,35.69,4.68,53.59.62,22.21-9.09,42.91-37.93,53.93a21.41,21.41,0,0,0-2.6,1.76h51.38V147h40.23v200.5H948.57V424H920.14V347.62H863.3V424H835V347.24H804.38V315.37c-16-1.72-22.09,1.4-25,19.36a16.68,16.68,0,0,0-.16,2c-1,20.26-2.34,40.51-2.9,60.78-.19,6.65-2,11.6-6.89,16.14-7.75,7.21-16.3,10.28-26.47,6.72-10.38-3.63-15.75-11.59-16.57-22.21-1.84-23.93-1.88-47.88,1.94-71.65,4.59-28.66,19.82-49.26,47.34-59.86a135.75,135.75,0,0,1,22.82-7c12.88-2.49,25.93-4.1,39-5.78,4.52-.58,5.43-2.58,4.58-6.68-1.51-7.32-2.65-14.71-4-22.06-1.92-10.41-3.89-20.81-6-32-3.05,1.95-5.3,3.63-7.76,4.91-10.13,5.27-19.89,11.72-30.61,15.27-12.84,4.25-26.48,6.24-39.87,8.68-4.21.76-5.45,2.32-5.37,6.35.22,9.77.07,19.55.07,30H707V419.89H272.72V258.09H230.41V222c-30.28-1.32-57.5-10.93-82.83-28.75-3.44,18.75-6.65,35.86-9.68,53-1.25,7.11-1,6.69,6.41,7.94,17.19,2.9,34.59,5.14,51.35,9.7,28.58,7.76,47.19,26.5,54.12,55.63,6.43,27,5.55,54.48,3,81.87-1.12,12.17-11.55,20.42-24.32,20.5s-23.62-8.45-24.64-20.74c-1.49-18.05-1.91-36.19-3.13-54.27a126.62,126.62,0,0,0-3.09-22.15c-.8-3.23-3.82-7.32-6.75-8.3-5.07-1.71-10.87-1.29-16.65-1.79v31.63l-30.92,2.3v76l-28.24-1.25V347.65H59.74V424H30.88V348.49Z"/><path d="M205.83,50.36C205.69,74,183.9,95.73,160.34,95.71c-24.6,0-45.4-20.84-45.07-45.12.32-24.43,20.58-45.16,44.11-45.14C184.89,5.47,206,25.86,205.83,50.36Z"/><path d="M862,50.53c2.1,14.9-3.29,26.61-15.17,35.26s-25.15,12-39.63,8.12C787.27,88.6,772.37,67.06,774.47,47c2.35-22.62,19.78-40.14,41.4-41.63,17.19-1.19,36.79,9.62,43.66,25.36,2.62,6,2.58,13.17,3.75,19.81Z"/></svg>