<svg id="Calque_1" data-name="Calque 1" xmlns="http://www.w3.org/2000/svg" viewBox="0 0 765.24 52.5"><defs><style>.cls-1,.cls-2{fill:#93a955;}.cls-1{opacity:0.6;isolation:isolate;}.cls-3{fill:#fff;}.cls-4{fill:#338eb4;}.cls-5{fill:#f68b17;}.cls-6{fill:#f9be00;}</style></defs><path class="cls-1" d="M444.52,30.32l-.14.16a1.09,1.09,0,0,0,.13-.17Z"/><path class="cls-1" d="M551.75,30.21a8.55,8.55,0,0,0,.52.86c-47.8,28.14-73.94,28.57-106.89,1.27a7.85,7.85,0,0,0,.67-.74C478.58,58.51,504.46,58.06,551.75,30.21Z"/><path class="cls-1" d="M565.52,22.7c.09.11.17.22.25.34h0Z"/><path class="cls-1" d="M667.3,21.77a6.71,6.71,0,0,0-.51.86c-20.42-12.14-55.68-23.78-99.27-.55a6.42,6.42,0,0,0-.59-.81C611-2.28,646.65,9.5,667.3,21.77Z"/><path class="cls-1" d="M317.51,31.54a6.51,6.51,0,0,0,.63.76c-33.5,26.72-76.28,26.82-108.92.34a6.83,6.83,0,0,0,.69-.73C242.17,58,284.4,57.9,317.51,31.54Z"/><path class="cls-1" d="M198.77,21.89h0l0,0Z"/><path class="cls-1" d="M82.44,31.45a6.61,6.61,0,0,0,.63.77C68,44.9,52.94,47.15,42.49,46.59c-18.17-1-33.63-10.76-40.88-20.06l.79-.61C9.51,35,24.68,44.65,42.54,45.59,52.81,46.14,67.57,43.92,82.44,31.45Z"/><path class="cls-1" d="M84.19,30.44l.24.29.16.18a0,0,0,0,1,0,0A3.56,3.56,0,0,1,84.19,30.44Z"/><path class="cls-1" d="M143.85,0c18.77-.29,37.1,6.8,53.41,20.57a7.89,7.89,0,0,0-.65.76C180.48,7.72,162.39.72,143.87,1c-17.39.28-34,7-48.44,19.56a9.32,9.32,0,0,0-.74-.67C109.34,7.13,126.19.29,143.85,0Z"/><path class="cls-1" d="M432.82,20.2a9.61,9.61,0,0,0-.73.7c-33.33-26.52-68.76-26.44-101.15.24a8.06,8.06,0,0,0-.69-.74C363.09-6.69,399-6.76,432.82,20.2Z"/><path class="cls-1" d="M764.46,25.91l.78.63c-12,14.92-29.06,20.65-50.72,17-12.32-2.06-24.39-7-33.37-12a8,8,0,0,0,.55-.83c8.89,4.85,20.81,9.78,33,11.81C736,46.14,752.71,40.53,764.46,25.91Z"/><path class="cls-1" d="M204.23,20.06a7.74,7.74,0,0,1,1,.21h0a7.74,7.74,0,0,0-1-.21Z"/><g id="Ellipse_8" data-name="Ellipse 8"><path class="cls-2" d="M89.14,20h.63l.41,0c.14,0,.27,0,.4.06a2.74,2.74,0,0,1,.39.09l.39.11.37.14.37.16.35.17c.13.06.24.14.36.21a0,0,0,0,0,0,0,2.71,2.71,0,0,1,.35.24,6.79,6.79,0,0,1,.77.65,6.5,6.5,0,0,1,1.91,4.61,5.44,5.44,0,0,1,0,.57c0,.06,0,.12,0,.17s0,.33-.08.49a3.38,3.38,0,0,1-.08.34,1.05,1.05,0,0,1-.05.19,1.6,1.6,0,0,1-.1.31.24.24,0,0,1,0,.08c0,.13-.09.25-.14.37s-.12.27-.18.39l0,.06-.15.27,0,.07a4,4,0,0,1-.32.48l-.22.3a6.43,6.43,0,0,1-2,1.62,5,5,0,0,1-.57.27l-.6.22-.62.16a5,5,0,0,1-.56.09h-.75a6,6,0,0,1-.74,0L88,32.87l-.62-.16a5.89,5.89,0,0,1-.59-.21,6.53,6.53,0,0,1-2.07-1.4l-.17-.19-.16-.18-.24-.29-.23-.3h0c-.09-.13-.17-.26-.25-.4s-.13-.24-.19-.37a1.92,1.92,0,0,1-.12-.25c0-.06-.05-.13-.08-.2a3.41,3.41,0,0,1-.18-.48c0-.16-.09-.32-.13-.49a1.84,1.84,0,0,1-.05-.25,3.06,3.06,0,0,1,0-.32v-.05a.09.09,0,0,1,0-.05,1.49,1.49,0,0,1,0-.21,5.07,5.07,0,0,1,0-.55A6.46,6.46,0,0,1,83.36,24a7.4,7.4,0,0,1,.6-1.11,6.94,6.94,0,0,1,.8-1c.14-.14.3-.28.46-.42a7.46,7.46,0,0,1,1-.7h0l.35-.17.36-.16.37-.14.39-.11.21-.05.18,0a2.57,2.57,0,0,1,.4-.06l.41,0Z"/><path class="cls-2" d="M84.58,30.92a3.56,3.56,0,0,1-.39-.48l.24.29.16.18.17.19Z"/><path class="cls-2" d="M85.22,21.49a6.45,6.45,0,0,1,1-.7A7.46,7.46,0,0,0,85.22,21.49Z"/><path class="cls-2" d="M89.35,20h0Z"/><path class="cls-3" d="M84.58,30.92l.18.18-.17-.19-.16-.18-.24-.29A3.56,3.56,0,0,0,84.58,30.92Zm.64-9.43a7.46,7.46,0,0,1,1-.7A6.45,6.45,0,0,0,85.22,21.49ZM89.14,20h0Z"/></g><g id="Ellipse_10" data-name="Ellipse 10"><path class="cls-4" d="M324.14,20h.63l.41,0c.14,0,.27,0,.4.06l.39.09.39.11.37.14.37.16.35.17a7.28,7.28,0,0,1,1,.7l.22.2h0a3.51,3.51,0,0,1,.34.33l.35.39a6.18,6.18,0,0,1,.61.9,3.59,3.59,0,0,1,.17.34s0,0,0,.05a2.32,2.32,0,0,1,.16.36,2.5,2.5,0,0,1,.15.38l.09.31a.83.83,0,0,1,0,.15s0,0,0,.05a2.57,2.57,0,0,1,.08.38,5,5,0,0,1,.08.54,5.68,5.68,0,0,1,0,.59v.08c0,.16,0,.33,0,.49s0,.11,0,.17a.13.13,0,0,1,0,.06,3.5,3.5,0,0,1-.07.45l0,.16c0,.19-.09.38-.14.56a3.34,3.34,0,0,1-.17.44,2.76,2.76,0,0,1-.2.47s0,0,0,0-.1.19-.15.29a5.19,5.19,0,0,1-.31.5l-.22.3a2.51,2.51,0,0,1-.26.31l-.08.09c-.1.12-.22.23-.33.34a.6.6,0,0,1-.08.08l-.25.22a6.53,6.53,0,0,1-1,.7l-.28.14h0l-.32.15-.56.2-.62.16L325,33c-.21,0-.44,0-.66,0a6.62,6.62,0,0,1-2.52-.5,6.53,6.53,0,0,1-2.07-1.4L319.7,31a5.73,5.73,0,0,1-.64-.76.08.08,0,0,1,0,0,4.53,4.53,0,0,1-.3-.46,2.69,2.69,0,0,1-.16-.29c-.08-.15-.15-.3-.22-.46a2.74,2.74,0,0,1-.15-.4,1.83,1.83,0,0,1-.08-.25.09.09,0,0,1,0-.05l0-.08A2.29,2.29,0,0,1,318,28s0,0,0-.06a0,0,0,0,1,0,0l0-.16c0-.14-.05-.27-.07-.41v0a1.23,1.23,0,0,1,0-.2,5.12,5.12,0,0,1,0-.56,6.46,6.46,0,0,1,.51-2.53,7.4,7.4,0,0,1,.6-1.11,6.27,6.27,0,0,1,.8-1c.14-.14.3-.28.46-.42a7.46,7.46,0,0,1,1-.7h0l.35-.17.36-.16.37-.14.39-.11.21-.05.18,0a2.57,2.57,0,0,1,.4-.06l.41,0Z"/><path class="cls-4" d="M328.49,21.49a7.28,7.28,0,0,0-1-.7A6.53,6.53,0,0,1,328.49,21.49Z"/><path class="cls-4" d="M320.22,21.49a6.45,6.45,0,0,1,1-.7A7.46,7.46,0,0,0,320.22,21.49Z"/><path class="cls-4" d="M324.35,20h0Z"/><path class="cls-4" d="M324.14,20h0Zm-3.92,1.48a7.46,7.46,0,0,1,1-.7A6.45,6.45,0,0,0,320.22,21.49Zm8.27,0a6.53,6.53,0,0,0-1-.7A7.28,7.28,0,0,1,328.49,21.49Z"/></g><g id="Ellipse_12" data-name="Ellipse 12"><path class="cls-2" d="M559.85,20h.45l.44,0a7.53,7.53,0,0,1,2.44.73h0a7.74,7.74,0,0,1,1.11.7,7.39,7.39,0,0,1,.83.75l.12.13c.09.1.19.22.27.33l.24.34c.1.15.2.3.29.46a5.39,5.39,0,0,1,.25.48,6.89,6.89,0,0,1,.41,1.21,6.43,6.43,0,0,1,.14,1.32,4.63,4.63,0,0,1,0,.65,2.32,2.32,0,0,1-.06.38s0,0,0,.05a.17.17,0,0,1,0,.07,1.22,1.22,0,0,1,0,.17,1.24,1.24,0,0,1,0,.16l-.06.22a1.55,1.55,0,0,1-.07.23,5.6,5.6,0,0,1-.53,1.17,6.77,6.77,0,0,1-.75,1,6.61,6.61,0,0,1-1,.88,6.3,6.3,0,0,1-.53.37l-.08.05c-.16.1-.33.19-.5.28a6.65,6.65,0,0,1-.61.27h0a7.64,7.64,0,0,1-2.72.5c-.24,0-.48,0-.71,0l-.51-.07-.15,0a.14.14,0,0,1-.09,0l-.19,0-.43-.1-.58-.2-.06,0a5.63,5.63,0,0,1-.61-.27,7,7,0,0,1-1.12-.7,5.63,5.63,0,0,1-.45-.38l-.11-.1a4.68,4.68,0,0,1-.38-.39l0,0c-.11-.13-.22-.26-.32-.4l-.13-.18c-.11-.15-.2-.3-.29-.45s-.15-.27-.22-.41l0-.06a1.89,1.89,0,0,1-.09-.21.08.08,0,0,1,0,0,4.13,4.13,0,0,1-.17-.45c-.06-.17-.11-.35-.16-.53a.5.5,0,0,1,0-.12.5.5,0,0,1,0-.12.15.15,0,0,1,0-.07,2,2,0,0,1-.07-.43,4.63,4.63,0,0,1,0-.65v0a3.44,3.44,0,0,1,0-.46.41.41,0,0,1,0-.11v-.05a.45.45,0,0,1,0-.11c0-.13,0-.25.06-.37a.36.36,0,0,1,0-.1,1.42,1.42,0,0,1,0-.2,5.08,5.08,0,0,1,.15-.52,4.24,4.24,0,0,1,.23-.59,3.68,3.68,0,0,1,.23-.44l0,0a1,1,0,0,1,.14-.24A2.49,2.49,0,0,1,554,23a2.78,2.78,0,0,1,.26-.34,2.09,2.09,0,0,1,.14-.17,4.73,4.73,0,0,1,.37-.4l0,0a1.29,1.29,0,0,1,.18-.16q.21-.2.42-.36a7,7,0,0,1,1.12-.7l.38-.17.39-.16.4-.14a3.25,3.25,0,0,1,.42-.11l.42-.09a3.18,3.18,0,0,1,.43-.06l.44,0Z"/><path class="cls-2" d="M565.25,30.64a6.77,6.77,0,0,0,.75-1A6.15,6.15,0,0,1,565.25,30.64Z"/><path class="cls-2" d="M566.71,25.19A6.89,6.89,0,0,0,566.3,24,5.57,5.57,0,0,1,566.71,25.19Z"/><path class="cls-2" d="M565.76,23l-.24-.34c.09.11.17.22.25.34a4.34,4.34,0,0,1,.28.46C566,23.34,565.86,23.19,565.76,23Z"/><path class="cls-2" d="M564.3,21.49a7.74,7.74,0,0,0-1.11-.7A6.31,6.31,0,0,1,564.3,21.49Z"/><path class="cls-2" d="M556.52,20.79a7,7,0,0,0-1.12.7A6.4,6.4,0,0,1,556.52,20.79Z"/><path class="cls-2" d="M563.18,20.79a7.53,7.53,0,0,0-2.44-.73A7.13,7.13,0,0,1,563.18,20.79Z"/><path class="cls-2" d="M560.08,20h-.68a3.39,3.39,0,0,1,.45,0Z"/><path class="cls-2" d="M559.85,20a3.39,3.39,0,0,0-.45,0h.45Zm3.33.79a7.13,7.13,0,0,0-2.44-.73A7.53,7.53,0,0,1,563.18,20.79Zm-7.78.7a7,7,0,0,1,1.12-.7A6.4,6.4,0,0,0,555.4,21.49Zm8.9,0a6.31,6.31,0,0,0-1.11-.7A7.74,7.74,0,0,1,564.3,21.49ZM565.76,23c.1.15.2.3.29.46a4.34,4.34,0,0,0-.28-.46c-.08-.12-.16-.23-.25-.34Zm1,2.15A5.57,5.57,0,0,0,566.3,24,6.89,6.89,0,0,1,566.71,25.19Zm-1.46,5.45a6.15,6.15,0,0,0,.75-1A6.77,6.77,0,0,1,565.25,30.64Z"/></g><g id="Ellipse_9" data-name="Ellipse 9"><path class="cls-5" d="M203.14,20h.21a6.4,6.4,0,0,1,.88.06,7.74,7.74,0,0,1,1,.21l.14,0,.14.05.27.1.06,0,.54.26h0l.06,0,.4.24.2.13.19.14h0l.25.18A5.79,5.79,0,0,1,208,22c.16.16.3.32.45.5l.09.13a3.28,3.28,0,0,1,.27.38l.13.21,0,.07.15.27,0,.06a5.6,5.6,0,0,1,.33.8c0,.1.07.2.1.3a2.58,2.58,0,0,1,.09.35l.06.25c0,.16,0,.31.07.47v0s0,.11,0,.16a5.07,5.07,0,0,1,0,.55v0a5.49,5.49,0,0,1,0,.58,1.09,1.09,0,0,1,0,.26h0s0,.05,0,.08,0,.2-.05.3a3.28,3.28,0,0,1-.11.45.09.09,0,0,1,0,0s0,0,0,0a2.76,2.76,0,0,1-.08.27s0,0,0,.07-.09.25-.14.38a.31.31,0,0,1-.05.1s0,0,0,.06-.09.2-.14.3h0a.94.94,0,0,1-.12.22.53.53,0,0,1-.06.1.25.25,0,0,1,0,.07,2.38,2.38,0,0,1-.18.3,5.86,5.86,0,0,1-.37.5,6,6,0,0,1-.71.72,1.29,1.29,0,0,1-.17.16,6.53,6.53,0,0,1-1,.7,4,4,0,0,1-.56.26l-.16.07-.45.16-.62.16L204,33c-.21,0-.44,0-.66,0a6.62,6.62,0,0,1-2.52-.5,6.53,6.53,0,0,1-2.07-1.4,7.4,7.4,0,0,1-.8-1c-.09-.14-.18-.28-.26-.43s-.09-.16-.13-.24a2.64,2.64,0,0,1-.18-.38l0-.08q-.12-.29-.21-.57c-.07-.24-.13-.48-.18-.73a3.47,3.47,0,0,1-.06-.45,1.49,1.49,0,0,1,0-.21.06.06,0,0,1,0,0,4.18,4.18,0,0,1,0-.5,6.46,6.46,0,0,1,.51-2.53,7.4,7.4,0,0,1,.6-1.11l.17-.23a3.57,3.57,0,0,1,.3-.38,0,0,0,0,1,0,0l.21-.23.11-.11,0,0c.14-.14.29-.27.44-.4a7.46,7.46,0,0,1,1-.7h0l.35-.17.36-.16.37-.14.39-.11.21-.05.18,0a2.57,2.57,0,0,1,.4-.06l.41,0Z"/><path class="cls-5" d="M198.77,21.89h0l0,0Z"/><path class="cls-5" d="M207.24,21.3l.25.19-.25-.18Z"/><path class="cls-5" d="M200.25,20.79a7.46,7.46,0,0,0-1,.7A6.45,6.45,0,0,1,200.25,20.79Z"/><path class="cls-5" d="M203.35,20a6.4,6.4,0,0,1,.88.06,7.74,7.74,0,0,1,1,.21l.13,0h0l-.14,0a7.74,7.74,0,0,0-1-.21,6.4,6.4,0,0,0-.88-.06h0Z"/><path class="cls-3" d="M205.21,20.28l.14,0h0l-.13,0Zm-6.45,1.63,0,0h0Zm8.48-.6.25.18-.25-.19Zm-8,.18a7.46,7.46,0,0,1,1-.7A6.45,6.45,0,0,0,199.22,21.49ZM203.14,20h.21a6.4,6.4,0,0,1,.88.06,7.74,7.74,0,0,1,1,.21l.14,0h0l-.13,0a7.74,7.74,0,0,0-1-.21,6.4,6.4,0,0,0-.88-.06Z"/></g><g id="Ellipse_11" data-name="Ellipse 11"><path class="cls-6" d="M444.77,30c-.08.12-.16.24-.25.35l-.14.16a1.09,1.09,0,0,0,.13-.17C444.6,30.2,444.69,30.09,444.77,30Z"/><path class="cls-6" d="M445.3,24a5.57,5.57,0,0,1,.41,1.21A6.89,6.89,0,0,0,445.3,24Z"/><path class="cls-6" d="M442.19,20.79a6.31,6.31,0,0,1,1.11.7A7.74,7.74,0,0,0,442.19,20.79Z"/><path class="cls-6" d="M440.7,20.23l.28.08a6.82,6.82,0,0,1,1.09.42l.05,0-.06,0a6.37,6.37,0,0,0-1.08-.42Z"/><path class="cls-6" d="M438.85,20h.27a7.61,7.61,0,0,1,1.18.13l.32.08-.33-.07a6.45,6.45,0,0,0-1.17-.13h-.72A3.39,3.39,0,0,1,438.85,20Z"/><path class="cls-3" d="M438.4,20h.72a6.45,6.45,0,0,1,1.17.13l.33.07-.32-.08a7.61,7.61,0,0,0-1.18-.13h-.27A3.39,3.39,0,0,0,438.4,20Zm2.58.3a6.37,6.37,0,0,1,1.08.42l.06,0-.05,0a6.82,6.82,0,0,0-1.09-.42l-.28-.08Zm2.32,1.17a6.31,6.31,0,0,0-1.11-.7A7.74,7.74,0,0,1,443.3,21.49Zm2.41,3.7A5.57,5.57,0,0,0,445.3,24,6.89,6.89,0,0,1,445.71,25.19Zm-1.2,5.12a1.09,1.09,0,0,1-.13.17l.14-.16c.09-.11.17-.23.25-.35C444.69,30.09,444.6,30.2,444.51,30.31Z"/><path class="cls-6" d="M438.85,20h.27a6.45,6.45,0,0,1,1.17.13l.33.07h.08l.28.09a6.37,6.37,0,0,1,1.08.42l.06,0,.06,0h0a7.74,7.74,0,0,1,1.11.7,7.23,7.23,0,0,1,.95.88,4.12,4.12,0,0,1,.33.4l.14.2a3.37,3.37,0,0,1,.21.31l.15.27c.08.14.15.28.22.43a6.89,6.89,0,0,1,.41,1.21,6.43,6.43,0,0,1,.14,1.32,4.63,4.63,0,0,1,0,.65,2,2,0,0,1-.07.43.17.17,0,0,1,0,.07,1.22,1.22,0,0,1,0,.17,1.24,1.24,0,0,1,0,.16l-.06.22a1.55,1.55,0,0,1-.07.23,5.6,5.6,0,0,1-.53,1.17,3.61,3.61,0,0,1-.23.36c-.08.12-.17.23-.26.34a1.09,1.09,0,0,1-.13.17,1.83,1.83,0,0,1-.13.16,5.29,5.29,0,0,1-.41.41,6.3,6.3,0,0,1-.83.67l0,0a3,3,0,0,1-.38.24,6.73,6.73,0,0,1-1,.52,7.64,7.64,0,0,1-2.72.5c-.24,0-.48,0-.71,0a5.36,5.36,0,0,1-.7-.1l-.67-.16c-.16-.05-.33-.1-.48-.16l-.19-.07-.58-.26a7,7,0,0,1-1.12-.7c-.17-.13-.34-.27-.5-.42a4.17,4.17,0,0,1-.36-.37,1.14,1.14,0,0,1-.11-.11c-.09-.11-.19-.22-.27-.34a2,2,0,0,1-.17-.23l-.2-.31a1.1,1.1,0,0,1-.09-.14l-.05-.1,0,0c-.08-.14-.16-.29-.23-.44a4.92,4.92,0,0,1-.23-.6,5,5,0,0,1-.16-.55l0-.14h0a4,4,0,0,1-.08-.48.31.31,0,0,1,0-.1v0a4.21,4.21,0,0,1,0-.62v-.05a4.21,4.21,0,0,1,0-.62c0-.15,0-.29.07-.43s0-.22.06-.33,0,0,0,0,.09-.32.14-.47.12-.33.19-.49c0,0,0,0,0,0a2.56,2.56,0,0,1,.11-.24,2.21,2.21,0,0,1,.18-.34l0-.07a3.75,3.75,0,0,1,.24-.36s0,0,0-.05a1.79,1.79,0,0,1,.2-.28,1.56,1.56,0,0,1,.16-.2,1.93,1.93,0,0,1,.27-.3l0-.06a6.89,6.89,0,0,1,.75-.67h0a6.31,6.31,0,0,1,1.11-.7l.38-.17.39-.16c.27-.09.54-.18.82-.25a7.53,7.53,0,0,1,.85-.15l.44,0Z"/></g><g id="Ellipse_13" data-name="Ellipse 13"><path class="cls-6" d="M674.35,20a6.32,6.32,0,0,1,1.45.17l.14,0,.14,0,.67.22.15.05a0,0,0,0,1,0,0l.54.26a7.28,7.28,0,0,1,1,.7,6.52,6.52,0,0,1,2.36,5,6.42,6.42,0,0,1-.89,3.28h0a5.75,5.75,0,0,1-.56.83,7.65,7.65,0,0,1-.9.9,7.28,7.28,0,0,1-1,.7,7.89,7.89,0,0,1-.72.33,6.5,6.5,0,0,1-2.38.45,6.62,6.62,0,0,1-2.52-.5,6.53,6.53,0,0,1-2.07-1.4,7.4,7.4,0,0,1-.8-1,6.48,6.48,0,0,1-1.11-3.63,6.31,6.31,0,0,1,.66-2.84h0a6.18,6.18,0,0,1,.45-.79.18.18,0,0,0,0-.07,3.82,3.82,0,0,1,.36-.46c.13-.15.25-.29.39-.43s.3-.28.46-.42a7.46,7.46,0,0,1,1-.7h0A6.56,6.56,0,0,1,674.35,20Z"/><path class="cls-6" d="M678.49,21.49a7.28,7.28,0,0,0-1-.7A6.53,6.53,0,0,1,678.49,21.49Z"/><path class="cls-6" d="M671.25,20.79a7.46,7.46,0,0,0-1,.7A6.45,6.45,0,0,1,671.25,20.79Z"/><path class="cls-6" d="M674.35,20a6.83,6.83,0,0,1,1.44.16l.15.05-.14,0a6.32,6.32,0,0,0-1.45-.17,6.56,6.56,0,0,0-3.09.78A6.37,6.37,0,0,1,674.35,20Z"/><path class="cls-3" d="M678.49,21.49a6.53,6.53,0,0,0-1-.7A7.28,7.28,0,0,1,678.49,21.49Zm-8.27,0a7.46,7.46,0,0,1,1-.7A6.45,6.45,0,0,0,670.22,21.49Zm1-.7a6.56,6.56,0,0,1,3.09-.78,6.32,6.32,0,0,1,1.45.17l.14,0-.15-.05a6.83,6.83,0,0,0-1.44-.16A6.37,6.37,0,0,0,671.26,20.79Z"/></g></svg>